HIERARCHY
ROOT Hips
{
	OFFSET 0.00000 0.00000 0.00000
	CHANNELS 6 Xposition Yposition Zposition Yrotation Zrotation Xrotation 
	JOINT Lumbar
	{
		OFFSET 0 0 0
		CHANNELS 3 Zrotation Xrotation Yrotation
		JOINT Neck
		{
			OFFSET 0.00 0.2701 0.00
			CHANNELS 3 Zrotation Xrotation Yrotation
			End Site
			{
				OFFSET 0.00 0.1379 0.00
			}
		}
		JOINT RightShoulder
		{
			OFFSET 0.0119 0.2289 0.1181
			CHANNELS 3 Zrotation Xrotation Yrotation
			JOINT RightElbow
			{
				OFFSET 0.00 -0.1475 0.00
				CHANNELS 2 Zrotation Yrotation
				JOINT RightWrist
				{
					OFFSET 0.00 -0.1605 0.00
					CHANNELS 2 Zrotation Xrotation
					End Site
					{
						OFFSET 0.0040 -0.1068 0.0006
					}
				}
			}
		}
		JOINT LeftShoulder
		{
			OFFSET 0.0119 0.2289 -0.1181
			CHANNELS 3 Zrotation Xrotation Yrotation
			JOINT LeftElbow
			{
				OFFSET 0.00 -0.1475 0.00
				CHANNELS 2 Zrotation Yrotation
				JOINT LeftWrist
				{
					OFFSET 0.00 -0.1605 0.00
					CHANNELS 2 Zrotation Xrotation
					End Site
					{
						OFFSET 0.0040 -0.1068 -0.0006
					}
				}
			}
		}
	}
	JOINT RightHip
	{
		OFFSET 0.0316 -0.0424 0.0458
		CHANNELS 3 Zrotation Xrotation Yrotation
		JOINT RightKnee
		{
			OFFSET 0.00 -0.2438 0.00
			CHANNELS 1 Zrotation
			JOINT RightAnkle
			{
				OFFSET 0.00 -0.2449 0.00
				CHANNELS 3 Zrotation Xrotation Yrotation
				End Site
				{
					OFFSET 0.1237 -0.0542 0.0051
				}
			}
		}
	}
	JOINT LeftHip
	{
		OFFSET 0.0316 -0.0424 -0.0458
		CHANNELS 3 Zrotation Xrotation Yrotation
		JOINT LeftKnee
		{
			OFFSET 0.00 -0.2438 0.00
			CHANNELS 1 Zrotation
			JOINT LeftAnkle
			{
				OFFSET 0.00 -0.2449 0.00
				CHANNELS 3 Zrotation Xrotation Yrotation
				End Site
				{
					OFFSET 0.1237 -0.0542 -0.0051
				}
			}
		}
	}
}
MOTION
Frames: 14
Frame Time: 0.02
-1e-05 0 -0.00018 177.98678 -34.89072 -3.45217 42.75382 2.69859 -2.36073 -8.21627 -0.14238 -0.38285 79.92118 -97.12643 64.17215 5.32791 101.54315 11.33311 1.75489 70.86456 100.43034 -64.16877 5.74472 -94.92804 10.64242 0.55609 39.82419 -3.92221 -2.08477 -22.4519 -7.00289 -3.54437 -2.4983 43.51739 8.91962 1.66334 -28.05498 -6.56807 3.36689 2.41104
1e-05 -0 -0.00031 177.99064 -34.89804 -3.44844 42.76408 2.69558 -2.36297 -8.21086 -0.16957 -0.3831 79.80586 -97.15723 64.17189 5.32809 101.49453 11.33505 1.7558 70.58161 100.47132 -64.16877 5.77378 -94.92405 10.61431 0.57984 39.83406 -3.94067 -2.23534 -22.45827 -6.99747 -3.52976 -2.48927 43.52656 8.91911 1.61467 -28.05096 -6.57122 3.37303 2.41296
3e-05 -0 -0.00044 177.99452 -34.90532 -3.44472 42.77429 2.69258 -2.36521 -8.20546 -0.19668 -0.38335 79.69069 -97.18794 64.17163 5.32827 101.44601 11.33698 1.75666 70.2993 100.51224 -64.16877 5.80278 -94.92008 10.58627 0.60354 39.84389 -3.95906 -2.38538 -22.46463 -6.99206 -3.51519 -2.48026 43.53569 8.91858 1.56605 -28.04696 -6.57438 3.37916 2.41488
5e-05 -1e-05 -0.00057 177.99838 -34.91261 -3.441 42.78453 2.68958 -2.36744 -8.20007 -0.22379 -0.3836 79.5757 -97.21865 64.17137 5.32845 101.39754 11.33891 1.75756 70.01718 100.55311 -64.16877 5.83175 -94.9161 10.55824 0.62723 39.85373 -3.97746 -2.53547 -22.47098 -6.98666 -3.50062 -2.47126 43.54483 8.91807 1.51751 -28.04295 -6.57752 3.38528 2.4168
7e-05 -1e-05 -0.00069 178.00222 -34.91994 -3.43728 42.79482 2.68657 -2.36967 -8.19468 -0.25097 -0.38385 79.46061 -97.24946 64.17111 5.32862 101.34899 11.34084 1.75851 69.73451 100.59404 -64.16877 5.86076 -94.91212 10.53015 0.65095 39.8636 -3.99596 -2.68613 -22.47733 -6.98124 -3.48601 -2.46222 43.554 8.91757 1.46893 -28.03893 -6.58067 3.39142 2.41871
9e-05 -1e-05 -0.00082 178.00617 -34.92713 -3.43356 42.80486 2.68361 -2.37191 -8.18927 -0.27795 -0.3841 79.34529 -97.27997 64.17085 5.3288 101.30053 11.34277 1.75919 69.45298 100.63493 -64.16878 5.88975 -94.90815 10.5022 0.6746 39.87335 -4.01412 -2.83487 -22.4837 -6.97587 -3.47153 -2.45329 43.56306 8.91699 1.42025 -28.03495 -6.58382 3.39754 2.42064
0.00011 -1e-05 -0.00095 178.00988 -34.93459 -3.42983 42.8154 2.68054 -2.37414 -8.18388 -0.3053 -0.38435 79.23058 -97.31103 64.17058 5.32898 101.25195 11.34471 1.76041 69.16948 100.67584 -64.16877 5.91874 -94.90416 10.474 0.69837 39.88333 -4.03292 -2.98725 -22.49004 -6.97041 -3.45681 -2.44415 43.57232 8.91658 1.37183 -28.0309 -6.58697 3.40367 2.42254
0.00013 -2e-05 -0.00108 178.01382 -34.9418 -3.42612 42.82547 2.67757 -2.37637 -8.17849 -0.3323 -0.3846 79.11529 -97.34159 64.17033 5.32916 101.20348 11.34662 1.76114 68.88776 100.71674 -64.16877 5.94776 -94.90021 10.44602 0.72204 39.89311 -4.05115 -3.13639 -22.4964 -6.96503 -3.4423 -2.4352 43.58141 8.91601 1.32317 -28.02692 -6.59012 3.40979 2.42447
0.00015 -2e-05 -0.00121 178.01803 -34.94871 -3.42239 42.835 2.67472 -2.37863 -8.17302 -0.35891 -0.38485 78.99928 -97.37154 64.17007 5.32933 101.1551 11.34857 1.76126 68.60818 100.75762 -64.16879 5.97668 -94.89624 10.41835 0.74557 39.90262 -4.0686 -3.28118 -22.50281 -6.95975 -3.42807 -2.42651 43.59026 8.91525 1.2742 -28.023 -6.59327 3.41592 2.42644
0.00016 -2e-05 -0.00135 178.02069 -34.95735 -3.41867 42.84773 2.67119 -2.3808 -8.16781 -0.3879 -0.3851 78.88738 -97.40502 64.16979 5.32952 101.10608 11.35051 1.76486 68.31616 100.79859 -64.16874 6.00578 -94.89217 10.38901 0.76983 39.91361 -4.09032 -3.44981 -22.50901 -6.95391 -3.41228 -2.41642 43.60039 8.91559 1.22694 -28.01866 -6.59643 3.42205 2.42818
0.00019 -2e-05 -0.00147 178.02661 -34.96235 -3.41496 42.85366 2.6691 -2.38313 -8.16217 -0.41179 -0.38536 78.76684 -97.43102 64.16957 5.32968 101.05852 11.35234 1.76111 68.05054 100.83939 -64.16881 6.03476 -94.88842 10.36314 0.7926 39.92151 -4.10317 -3.56889 -22.51562 -6.94924 -3.39976 -2.40922 43.60788 8.91363 1.17613 -28.01523 -6.59957 3.42817 2.43039
0.00023 -3e-05 -0.00157 178.04143 -34.95715 -3.41104 42.84103 2.67088 -2.3861 -8.15446 -0.42231 -0.38567 78.62246 -97.43644 64.16953 5.32973 101.01408 11.35481 1.73697 67.85731 100.87948 -64.16922 6.06138 -94.88461 10.34745 0.81092 39.92083 -4.09011 -3.54427 -22.52354 -6.94792 -3.3966 -2.4104 43.60759 8.90533 1.11547 -28.01421 -6.60271 3.43428 2.434
0.00027 -3e-05 -0.00167 178.05949 -34.94836 -3.40716 42.82155 2.67413 -2.38915 -8.1465 -0.42762 -0.38599 78.46984 -97.43431 64.16955 5.32974 100.97133 11.35698 1.70553 67.69106 100.9194 -64.16974 6.08823 -94.88127 10.33515 0.82776 39.91715 -4.06843 -3.47115 -22.53185 -6.94777 -3.39666 -2.4144 43.60477 8.8948 1.05159 -28.01411 -6.60583 3.44035 2.43806
0.00032 -3e-05 -0.00176 178.07618 -34.9413 -3.40342 42.80511 2.67674 -2.39209 -8.13924 -0.43489 -0.3863 78.32052 -97.43574 64.16954 5.32977 100.92833 11.35866 1.67753 67.51189 100.95965 -64.17018 6.11638 -94.87833 10.32085 0.84561 39.91486 -4.05173 -3.42548 -22.53987 -6.94701 -3.39497 -2.4168 43.60341 8.88526 0.98884 -28.01363 -6.60896 3.44643 2.44188
